<svg width="44" height="48" viewBox="0 0 44 48" fill="none" xmlns="http://www.w3.org/2000/svg">
<path d="M15.7141 33.4284C24.3929 33.4284 31.4284 26.3929 31.4284 17.7141C31.4284 16.7306 31.3381 15.7681 31.1652 14.8345C30.2317 14.6617 29.2692 14.5713 28.2856 14.5713C19.6068 14.5713 12.5713 21.6068 12.5713 30.2856C12.5713 31.2692 12.6617 32.2317 12.8345 33.1652C13.7681 33.3381 14.7306 33.4284 15.7141 33.4284Z" fill="#175CD3"/>
<path fill-rule="evenodd" clip-rule="evenodd" d="M12.8347 33.1653C5.53118 31.8127 0 25.4095 0 17.7143C0 9.03553 7.03554 2 15.7143 2C23.4095 2 29.8128 7.53118 31.1654 14.8347C30.2318 14.6618 29.2694 14.5714 28.2858 14.5714C19.607 14.5714 12.5714 21.607 12.5714 30.2857C12.5714 31.2693 12.6618 32.2318 12.8347 33.1653Z" fill="#1570EF"/>
<path fill-rule="evenodd" clip-rule="evenodd" d="M15.7141 33.4284C24.3929 33.4284 31.4284 26.3928 31.4284 17.7141C31.4284 16.7305 31.338 15.768 31.1651 14.8345C38.4686 16.187 43.9998 22.5903 43.9998 30.2855C43.9998 38.9643 36.9643 45.9998 28.2855 45.9998C20.5903 45.9998 14.187 40.4686 12.8345 33.1651C13.768 33.338 14.7305 33.4284 15.7141 33.4284Z" fill="#2E90FA"/>
</svg>
